<svg id="GD001" height="512" viewBox="0 0 512 512" width="512" xmlns="http://www.w3.org/2000/svg" xmlns:xlink="http://www.w3.org/1999/xlink"><linearGradient id="New_Gradient_Swatch_2" gradientUnits="userSpaceOnUse" x1="256" x2="256" y1="46.926" y2="418.342"><stop offset="0" stop-color="#fc5c7d"/><stop offset=".129" stop-color="#f35e85"/><stop offset=".343" stop-color="#d9659b"/><stop offset=".616" stop-color="#b070bf"/><stop offset=".934" stop-color="#777ff0"/><stop offset="1" stop-color="#6a82fb"/></linearGradient><linearGradient id="New_Gradient_Swatch_2-2" x1="88" x2="88" xlink:href="#New_Gradient_Swatch_2" y1="46.926" y2="418.342"/><linearGradient id="New_Gradient_Swatch_2-3" x1="56" x2="56" xlink:href="#New_Gradient_Swatch_2" y1="46.926" y2="418.342"/><linearGradient id="New_Gradient_Swatch_2-4" x1="104" x2="104" xlink:href="#New_Gradient_Swatch_2" y1="46.926" y2="418.342"/><linearGradient id="New_Gradient_Swatch_2-7" x1="260" x2="260" xlink:href="#New_Gradient_Swatch_2" y1="46.926" y2="418.342"/><linearGradient id="New_Gradient_Swatch_2-8" x1="424" x2="424" xlink:href="#New_Gradient_Swatch_2" y1="46.926" y2="418.342"/><linearGradient id="New_Gradient_Swatch_2-9" x1="96" x2="96" xlink:href="#New_Gradient_Swatch_2" y1="46.926" y2="418.342"/><linearGradient id="New_Gradient_Swatch_2-10" x1="24" x2="24" xlink:href="#New_Gradient_Swatch_2" y1="46.926" y2="418.342"/><linearGradient id="New_Gradient_Swatch_2-11" x1="48" x2="48" xlink:href="#New_Gradient_Swatch_2" y1="46.926" y2="418.342"/><linearGradient id="New_Gradient_Swatch_2-12" x1="128" x2="128" xlink:href="#New_Gradient_Swatch_2" y1="46.926" y2="418.342"/><linearGradient id="New_Gradient_Swatch_2-13" x1="360" x2="360" xlink:href="#New_Gradient_Swatch_2" y1="46.926" y2="418.342"/><linearGradient id="New_Gradient_Swatch_2-14" x1="456" x2="456" xlink:href="#New_Gradient_Swatch_2" y1="46.926" y2="418.342"/><linearGradient id="New_Gradient_Swatch_2-15" x1="416" x2="416" xlink:href="#New_Gradient_Swatch_2" y1="46.926" y2="418.342"/><linearGradient id="New_Gradient_Swatch_2-16" x1="480" x2="480" xlink:href="#New_Gradient_Swatch_2" y1="46.926" y2="418.342"/><linearGradient id="New_Gradient_Swatch_2-17" x1="152" x2="152" xlink:href="#New_Gradient_Swatch_2" y1="46.926" y2="418.342"/><path d="m432 368h24a8 8 0 0 0 6.656-12.438l-32-48a8 8 0 0 0 -6.656-3.562h-27.57a144.038 144.038 0 0 0 -280.86 0h-27.57a8 8 0 0 0 -6.656 3.562l-32 48a8 8 0 0 0 6.656 12.438h24v112h-32v16h416v-16h-32zm9.052-16h-220.771l-21.333-32h220.771zm-108.108-48 8.509-17.017 29.9-6.645a127.493 127.493 0 0 1 8.615 23.662zm-4.127-73.357-36.395 18.2a8 8 0 0 0 -3.078 2.717l-13.625 20.44h-16.406l-21.656-21.657a7.994 7.994 0 0 0 -3.717-2.1l-27.518-6.88-5.935-20.763a128.484 128.484 0 0 1 128.33 10.043zm-142.667-1.987 6.159 21.543a8 8 0 0 0 5.751 5.562l29.85 7.463 22.433 22.433a8 8 0 0 0 5.657 2.343h24a8 8 0 0 0 6.656-3.562l14.823-22.233 41.129-20.57a127.666 127.666 0 0 1 20.516 24.141l-28.86 6.414a8 8 0 0 0 -5.419 4.232l-13.789 27.578h-124.81l-6.485-25.94a8 8 0 0 0 -2.555-4.135l-23.459-20.1a128.023 128.023 0 0 1 28.403-25.169zm-37.908 38.092 20.615 17.667 4.9 19.585h-41.725a127.3 127.3 0 0 1 16.21-37.252zm-55.961 53.252h76.771l-21.333 32h-76.771zm3.719 48h56a8 8 0 0 0 6.656-3.562l25.344-38.016 25.344 38.016a8 8 0 0 0 6.656 3.562h200v112h-224v-120h-16v120h-80z" fill="url(#New_Gradient_Swatch_2)"/><path d="m107.2 238.4a8 8 0 0 0 12.8-6.4v-16h16a24.027 24.027 0 0 0 24-24v-64a24.027 24.027 0 0 0 -24-24h-96a24.027 24.027 0 0 0 -24 24v64a24.027 24.027 0 0 0 24 24h37.333zm-75.2-46.4v-64a8.009 8.009 0 0 1 8-8h96a8.009 8.009 0 0 1 8 8v64a8.009 8.009 0 0 1 -8 8h-24a8 8 0 0 0 -8 8v8l-19.2-14.4a8 8 0 0 0 -4.8-1.6h-40a8.009 8.009 0 0 1 -8-8z" fill="url(#New_Gradient_Swatch_2-2)"/><path d="m48 136h16v16h-16z" fill="url(#New_Gradient_Swatch_2-3)"/><path d="m80 136h48v16h-48z" fill="url(#New_Gradient_Swatch_2-4)"/><path d="m48 168h80v16h-80z" fill="url(#New_Gradient_Swatch_2-2)"/><path d="m208 152h27.719l13.625 20.438a8 8 0 0 0 13.312 0l13.625-20.438h27.719a24.027 24.027 0 0 0 24-24v-80a24.027 24.027 0 0 0 -24-24h-96a24.027 24.027 0 0 0 -24 24v80a24.027 24.027 0 0 0 24 24zm-8-104a8.009 8.009 0 0 1 8-8h96a8.009 8.009 0 0 1 8 8v80a8.009 8.009 0 0 1 -8 8h-32a8 8 0 0 0 -6.656 3.562l-9.344 14.016-9.344-14.016a8 8 0 0 0 -6.656-3.562h-32a8.009 8.009 0 0 1 -8-8z" fill="url(#New_Gradient_Swatch_2)"/><path d="m227.6 118.679a8 8 0 0 0 7.555.674l56-24a8 8 0 0 0 0-14.706l-56-24a8 8 0 0 0 -11.155 7.353v48a8 8 0 0 0 3.6 6.679zm12.4-42.547 27.691 11.868-27.691 11.868z" fill="url(#New_Gradient_Swatch_2-7)"/><path d="m488 96h-128a8 8 0 0 0 -8 8v96a8 8 0 0 0 8 8h40v16a8 8 0 0 0 12.8 6.4l29.867-22.4h45.333a8 8 0 0 0 8-8v-96a8 8 0 0 0 -8-8zm-21.291 16-42.709 37.37-42.709-37.37zm-26.709 80a8 8 0 0 0 -4.8 1.6l-19.2 14.4v-8a8 8 0 0 0 -8-8h-40v-70.37l50.732 44.391a8 8 0 0 0 10.536 0l50.732-44.391v70.37z" fill="url(#New_Gradient_Swatch_2-8)"/><path d="m88 264h16v16h-16z" fill="url(#New_Gradient_Swatch_2-9)"/><path d="m16 304h16v16h-16z" fill="url(#New_Gradient_Swatch_2-10)"/><path d="m40 48h16v16h-16z" fill="url(#New_Gradient_Swatch_2-11)"/><path d="m120 72h16v16h-16z" fill="url(#New_Gradient_Swatch_2-12)"/><path d="m352 64h16v16h-16z" fill="url(#New_Gradient_Swatch_2-13)"/><path d="m448 32h16v16h-16z" fill="url(#New_Gradient_Swatch_2-14)"/><path d="m408 256h16v16h-16z" fill="url(#New_Gradient_Swatch_2-15)"/><path d="m472 296h16v16h-16z" fill="url(#New_Gradient_Swatch_2-16)"/><path d="m144 16h16v16h-16z" fill="url(#New_Gradient_Swatch_2-17)"/></svg>