<svg id="GD001" height="512" viewBox="0 0 512 512" width="512" xmlns="http://www.w3.org/2000/svg" xmlns:xlink="http://www.w3.org/1999/xlink"><linearGradient id="New_Gradient_Swatch_2" gradientUnits="userSpaceOnUse" x1="236" x2="236" y1="29.097" y2="414.051"><stop offset="0" stop-color="#fc5c7d"/><stop offset=".129" stop-color="#f35e85"/><stop offset=".343" stop-color="#d9659b"/><stop offset=".616" stop-color="#b070bf"/><stop offset=".934" stop-color="#777ff0"/><stop offset="1" stop-color="#6a82fb"/></linearGradient><linearGradient id="New_Gradient_Swatch_2-2" x1="288" x2="288" xlink:href="#New_Gradient_Swatch_2" y1="29.097" y2="414.051"/><linearGradient id="New_Gradient_Swatch_2-3" x1="112" x2="112" xlink:href="#New_Gradient_Swatch_2" y1="29.097" y2="414.051"/><linearGradient id="New_Gradient_Swatch_2-4" x1="96" x2="96" xlink:href="#New_Gradient_Swatch_2" y1="29.097" y2="414.051"/><linearGradient id="New_Gradient_Swatch_2-5" x1="424" x2="424" xlink:href="#New_Gradient_Swatch_2" y1="29.097" y2="414.051"/><linearGradient id="New_Gradient_Swatch_2-6" x1="440" x2="440" xlink:href="#New_Gradient_Swatch_2" y1="29.097" y2="414.051"/><linearGradient id="New_Gradient_Swatch_2-7" x1="160" x2="160" xlink:href="#New_Gradient_Swatch_2" y1="29.097" y2="414.051"/><linearGradient id="New_Gradient_Swatch_2-8" x1="360" x2="360" xlink:href="#New_Gradient_Swatch_2" y1="29.097" y2="414.051"/><linearGradient id="New_Gradient_Swatch_2-9" x1="384" x2="384" xlink:href="#New_Gradient_Swatch_2" y1="29.097" y2="414.051"/><linearGradient id="New_Gradient_Swatch_2-12" x1="204" x2="204" xlink:href="#New_Gradient_Swatch_2" y1="29.097" y2="414.051"/><linearGradient id="New_Gradient_Swatch_2-13" x1="152" x2="152" xlink:href="#New_Gradient_Swatch_2" y1="29.097" y2="414.051"/><linearGradient id="New_Gradient_Swatch_2-14" x1="180" x2="180" xlink:href="#New_Gradient_Swatch_2" y1="29.097" y2="414.051"/><linearGradient id="New_Gradient_Swatch_2-15" x1="172" x2="172" xlink:href="#New_Gradient_Swatch_2" y1="29.097" y2="414.051"/><linearGradient id="New_Gradient_Swatch_2-16" x1="248" x2="248" xlink:href="#New_Gradient_Swatch_2" y1="29.097" y2="414.051"/><linearGradient id="New_Gradient_Swatch_2-17" x1="280" x2="280" xlink:href="#New_Gradient_Swatch_2" y1="29.097" y2="414.051"/><path d="m328 432h48v-16h-48v-16h88v-16h-88v-160a8 8 0 0 0 -2.343-5.657l-56-56a8 8 0 0 0 -5.657-2.343h-200a8 8 0 0 0 -8 8v320a8 8 0 0 0 8 8h256a8 8 0 0 0 8-8v-24h72v-16h-72zm-56-244.686 28.686 28.686h-28.686zm40 292.686h-240v-304h184v48a8 8 0 0 0 8 8h48v152h-16v16h16v16h-56v16h56v16h-32v16h32z" fill="url(#New_Gradient_Swatch_2)"/><path d="m453.657 74.343-56-56a8 8 0 0 0 -5.657-2.343h-168a8 8 0 0 0 -8 8v24h-96v16h96v16h-56v16h56v16h-80v16h80v16h16v-16h32v-16h-32v-16h56v-16h-56v-16h16v-16h-16v-16h152v48a8 8 0 0 0 8 8h48v200h-96v16h104a8 8 0 0 0 8-8v-216a8 8 0 0 0 -2.343-5.657zm-53.657-31.03 28.687 28.687h-28.687z" fill="url(#New_Gradient_Swatch_2-2)"/><path d="m104 112h16v16h-16z" fill="url(#New_Gradient_Swatch_2-3)"/><path d="m88 48h16v16h-16z" fill="url(#New_Gradient_Swatch_2-4)"/><path d="m416 448h16v16h-16z" fill="url(#New_Gradient_Swatch_2-5)"/><path d="m432 384h16v16h-16z" fill="url(#New_Gradient_Swatch_2-6)"/><path d="m160 328a64.095 64.095 0 1 0 -53.843-29.47l-7.814 7.813a8 8 0 0 0 -2.343 5.657v144h16v-140.686l4.463-4.463a63.747 63.747 0 0 0 43.537 17.149zm8-111.321a47.743 47.743 0 0 1 19.788 8.22l-19.788 19.788zm0 94.642v-44.008l31.1-31.1a47.948 47.948 0 0 1 -31.1 75.108zm-56-47.321a48.07 48.07 0 0 1 40-47.321v94.642a47.88 47.88 0 0 1 -24.228-11.78l13.885-13.884-11.314-11.314-12.532 12.533a47.7 47.7 0 0 1 -5.811-22.876z" fill="url(#New_Gradient_Swatch_2-7)"/><path d="m320 112v32h-16v16h112v-16h-16v-24h-16v24h-16v-56h-16v56h-16v-32z" fill="url(#New_Gradient_Swatch_2-8)"/><g fill="url(#New_Gradient_Swatch_2-9)"><path d="m352 184h64v16h-64z"/><path d="m352 216h64v16h-64z"/><path d="m352 248h64v16h-64z"/></g><path d="m176 360h56v16h-56z" fill="url(#New_Gradient_Swatch_2-12)"/><path d="m144 360h16v16h-16z" fill="url(#New_Gradient_Swatch_2-13)"/><path d="m128 392h104v16h-104z" fill="url(#New_Gradient_Swatch_2-14)"/><path d="m128 424h88v16h-88z" fill="url(#New_Gradient_Swatch_2-15)"/><path d="m240 288h16v16h-16z" fill="url(#New_Gradient_Swatch_2-16)"/><path d="m272 288h16v16h-16z" fill="url(#New_Gradient_Swatch_2-17)"/><path d="m240 256h16v16h-16z" fill="url(#New_Gradient_Swatch_2-16)"/><path d="m272 256h16v16h-16z" fill="url(#New_Gradient_Swatch_2-17)"/></svg>